<svg id="Logo_v1" data-name="Logo v1" xmlns="http://www.w3.org/2000/svg" viewBox="0 0 1501.66 658.36"><defs><style>.cls-1{fill:#415364;}</style></defs><path class="cls-1" d="M313.81,385.08h-68.5l50.9,167.7h88.85L340.77,405.14A28.14,28.14,0,0,0,313.81,385.08ZM312,531.43l-37.93-125h39.7a6.76,6.76,0,0,1,6.51,4.85l36,120.15Z"/><path class="cls-1" d="M329.16,105.58,195,373.9V123.33a17.75,17.75,0,0,0-17.75-17.75h-71.7v279.5h83.85l-83.85,167.7h55.9l223.6-447.2ZM173.65,363.73H126.92V126.93h46.73Z"/><rect class="cls-1" x="1133.52" y="190.98" width="34.55" height="276.39"/><polygon class="cls-1" points="836.4 190.98 746.31 190.98 732.49 225.53 822.32 225.53 836.4 190.98"/><path class="cls-1" d="M836.4,446.65H784.54a52.05,52.05,0,0,1-52-52.06V260.08H697.94V380.79a86.59,86.59,0,0,0,86.59,86.59H871V260.08H836.4Z"/><path class="cls-1" d="M576.56,321.67A33.93,33.93,0,0,1,545.06,343H525.19V191H490.64v276.4h34.55V363.73h34.35a51.31,51.31,0,0,0,47.65-32.27L663.39,191H628.84Z"/><path class="cls-1" d="M616.2,363.73H594.29l34.55,103.65h34.55l-30.56-91.66A17.52,17.52,0,0,0,616.2,363.73Z"/><path class="cls-1" d="M1051.79,363.73h-21.91l34.55,103.65H1099l-30.55-91.66A17.53,17.53,0,0,0,1051.79,363.73Z"/><path class="cls-1" d="M1012.15,321.67A33.93,33.93,0,0,1,980.65,343H960.78V191H926.23v276.4h34.55V363.73h34.35a51.31,51.31,0,0,0,47.65-32.27L1099,191h-34.55Z"/><path class="cls-1" d="M1336.86,230.42A52.07,52.07,0,0,0,1286.35,191h-63v276.4h34.55V384.46h82.92l20.73,82.92h34.55Zm-79,133.31v-152H1271a34.1,34.1,0,0,1,33.08,25.83l31.54,126.19Z"/></svg>